<?xml version="1.0" encoding="utf-8"?>
<!-- Generator: Adobe Illustrator 23.0.5, SVG Export Plug-In . SVG Version: 6.00 Build 0)  -->
<svg version="1.1" id="Layer_1" xmlns="http://www.w3.org/2000/svg" xmlns:xlink="http://www.w3.org/1999/xlink" x="0px" y="0px"
	 viewBox="0 0 429 524" style="enable-background:new 0 0 429 524;" xml:space="preserve">
<style type="text/css">
	.st0{fill:#000033;}
	.st1{fill:#FFFFFF;}
</style>
<g>
	<g>
		<g>
			<path class="st0" d="M282.01,167.98c-18.65-14.95-42.31-23.9-68.01-23.9s-49.36,8.95-68.01,23.9H63.48v98.08v72.01h82.51
				c18.65,14.95,42.31,23.9,68.01,23.9s49.36-8.95,68.01-23.9h82.51v-72.01v-98.08H282.01z M88.31,192.81h34.95
				c-11.5,17.26-18.19,37.97-18.19,60.21c0,4.41,0.26,8.76,0.78,13.04H88.31V192.81z M214,338.53c-3.04,0-6.05-0.16-9.01-0.47
				c-20.09-2.12-38.14-11.22-51.64-24.83c-12.46-12.54-21.06-28.91-23.87-47.18c-0.65-4.25-0.99-8.6-0.99-13.04
				c0-23.46,9.5-44.75,24.86-60.21c13.5-13.61,31.54-22.71,51.64-24.83c2.96-0.31,5.97-0.47,9.01-0.47s6.05,0.16,9.01,0.47
				c20.09,2.12,38.14,11.22,51.64,24.83c15.36,15.46,24.86,36.75,24.86,60.21c0,4.43-0.34,8.78-0.99,13.04
				c-2.81,18.26-11.41,34.64-23.87,47.18c-13.5,13.61-31.54,22.71-51.64,24.83C220.05,338.37,217.04,338.53,214,338.53z
				 M322.16,266.05c0.52-4.28,0.78-8.62,0.78-13.04c0-22.24-6.7-42.95-18.19-60.21h34.95v73.25H322.16z"/>
			<path class="st0" d="M259.17,253.02L259.17,253.02c0,1.86-1.14,3.52-2.88,4.19c-16.47,6.36-29.57,19.47-35.93,35.93
				c-0.67,1.73-2.33,2.88-4.19,2.88h0c-1.86,0-3.52-1.14-4.19-2.88c-6.36-16.47-19.47-29.57-35.93-35.93
				c-1.73-0.67-2.88-2.33-2.88-4.19l0,0c0-1.86,1.14-3.52,2.88-4.19c16.46-6.35,29.57-19.47,35.93-35.93
				c0.67-1.73,2.33-2.88,4.19-2.88h0c1.86,0,3.52,1.14,4.19,2.88c6.36,16.47,19.47,29.58,35.93,35.93
				C258.03,249.5,259.17,251.16,259.17,253.02z"/>
		</g>
		<rect x="176.76" y="107.77" class="st0" width="74.48" height="27.93"/>
	</g>
	<path d="M7,14.03V510h414V14.03H7z M396.17,38.47v344.49h-21.1H256.52H137.97H31.83V38.47H396.17z"/>
	<g>
		<path class="st1" d="M36.06,420.33c0-2.69-0.15-5.34-0.45-7.97c12,0.18,19.71,0.27,23.14,0.27c3.43,0,11.15-0.09,23.14-0.27
			c-0.42,3.64-0.63,6.3-0.63,7.97h-0.63c-6.63-1.67-12.27-2.57-16.92-2.69c-0.3,3.1-0.45,7.91-0.45,14.42v24.62
			c0,8.06,0.45,14.06,1.34,18v0.63H52.89v-0.63c0.77-3.88,1.16-9.76,1.16-17.64v-24.62c0-6.74-0.15-11.67-0.45-14.77
			c-4.54,0.12-10.18,1.02-16.92,2.69H36.06z"/>
		<path class="st1" d="M98.37,412.81l13.34-0.18c14.32,0,21.49,5.16,21.49,15.49c0,5.01-1.66,9.21-4.97,12.58
			c-3.31,3.37-7.71,5.39-13.21,6.04l10.3,12.98c4.3,5.43,7.52,9.13,9.67,11.1c2.15,1.97,4,3.16,5.55,3.58v0.9h-14.68
			c-1.13-1.85-2.93-4.51-5.37-7.97l-14.5-20.32l-2.6-0.18v14.06c0,6.27,0.45,10.86,1.34,13.79v0.63H92.46v-0.63
			c1.13-3.04,1.7-7.31,1.7-12.8v-34.74c0-6.21-0.45-10.83-1.34-13.88v-0.63L98.37,412.81z M110.55,417.2
			c-2.86,0-5.16,0.12-6.89,0.36c-0.18,1.31-0.27,9.61-0.27,24.89c2.15,0.24,4.21,0.36,6.18,0.36c5.01,0,8.55-1.15,10.61-3.45
			c2.06-2.3,3.09-5.7,3.09-10.21c0-4.51-0.96-7.62-2.86-9.36C118.49,418.07,115.21,417.2,110.55,417.2z"/>
		<path class="st1" d="M172.5,453.37c-4.36,0-7.67,0.03-9.94,0.09c-1.67,6.69-2.7,11.12-3.09,13.3c-0.39,2.18-0.58,4.52-0.58,7.03
			v1.52h-12.18v-0.9c2.69-2.09,6.28-10.37,10.79-24.85c4.51-14.47,7.43-23.95,8.77-28.43c1.34-4.48,2.07-7.34,2.19-8.6l10.48-1.07
			c0,2.09,1.88,8.61,5.64,19.56c3.76,10.95,6.79,19.42,9.09,25.38c2.3,5.97,4.07,10.12,5.33,12.44c1.25,2.33,2.66,4.18,4.21,5.55
			v0.9h-15.04v-1.52c0-2.15-0.28-4.15-0.85-6c-0.57-1.85-0.94-3.04-1.12-3.58l-3.58-10.74C180.23,453.4,176.86,453.37,172.5,453.37z
			 M172.24,419.26c-1.19,3.16-4.06,12.86-8.59,29.1h17.46c-1.07-3.28-2.66-8.45-4.74-15.49
			C174.26,425.83,172.89,421.29,172.24,419.26z"/>
		<path class="st1" d="M220.13,412.81l14.06-0.18c15.4,0,23.1,5.7,23.1,17.1c0,6.57-2.25,11.67-6.76,15.31
			c-4.51,3.64-10.28,5.46-17.32,5.46c-2.45,0-5.01-0.27-7.7-0.81v13.52c0,4.89,0.57,8.74,1.7,11.55v0.54h-12.62v-0.63
			c1.13-3.04,1.7-7.31,1.7-12.8v-34.29c0-6.27-0.48-11.04-1.43-14.33v-0.63L220.13,412.81z M247.17,430.63
			c0-8.95-4.3-13.43-12.89-13.43c-4.36,0-7.22,0.09-8.59,0.27c-0.12,1.61-0.18,6.87-0.18,15.76v12.27c2.33,0.66,4.74,0.98,7.25,0.98
			c4.71,0,8.3-1.39,10.74-4.16C245.95,439.54,247.17,435.64,247.17,430.63z"/>
		<path class="st1" d="M309.12,445.22l-14.15-0.09c-5.91,0-10.6,0.03-14.06,0.09v11.37c0,2.21,0.13,5.43,0.4,9.67
			c0.27,4.24,0.58,7.04,0.94,8.42v0.63h-11.91v-0.63c0.9-3.46,1.34-9.52,1.34-18.18v-25.07c0-8.65-0.45-14.71-1.34-18.18v-0.63
			h11.91v0.63c-0.36,1.37-0.67,4.19-0.94,8.46c-0.27,4.27-0.4,7.51-0.4,9.71v8.15h28.2v-8.15c0-2.21-0.13-5.45-0.4-9.71
			c-0.27-4.27-0.58-7.09-0.94-8.46v-0.63h11.91v0.63c-0.9,3.46-1.34,9.52-1.34,18.18v25.07c0,8.66,0.45,14.71,1.34,18.18v0.63
			h-11.91v-0.63c0.36-1.37,0.67-4.18,0.94-8.42c0.27-4.24,0.4-7.46,0.4-9.67V445.22z"/>
		<path class="st1" d="M361.99,476.38c-8.63,0-15.49-3.01-20.59-9.04c-5.1-6.03-7.65-13.65-7.65-22.88c0-9.22,2.89-17.04,8.68-23.46
			c5.79-6.42,13.25-9.63,22.38-9.63c5.91,0,10.98,1.46,15.22,4.39c8.24,5.67,12.35,14.54,12.35,26.59c0,9.85-2.91,17.98-8.73,24.4
			C377.84,473.17,370.62,476.38,361.99,476.38z M382.27,444.78c0-7.64-1.43-13.88-4.3-18.71c-3.16-5.43-8.48-8.15-15.94-8.15
			c-5.25,0-9.37,0.93-12.36,2.78c-1.73,2.15-3.13,5.18-4.21,9.09c-1.07,3.91-1.61,8.3-1.61,13.16c0,4.87,0.63,9.25,1.88,13.16
			c1.25,3.91,3.51,7.21,6.76,9.89c3.25,2.69,7.25,4.03,12,4.03c4.74,0,8.67-0.98,11.77-2.95
			C380.27,462.59,382.27,455.16,382.27,444.78z"/>
	</g>
</g>
</svg>
